<svg width="24" height="31" viewBox="0 0 24 31" fill="none" xmlns="http://www.w3.org/2000/svg">
<path d="M12 1C18.0169 1 23 6.49169 23 12.5C23 20.4546 16.9374 25.6643 13.5684 28.5781C13.0159 28.991 12.6596 29.2562 12.376 29.4258C12.0973 29.5924 12.0097 29.5908 12 29.5908C11.9903 29.5908 11.9027 29.5924 11.624 29.4258C11.3403 29.2561 10.9834 28.9912 10.4307 28.5781C7.06147 25.6642 1 20.4541 1 12.5C1 6.49169 5.98315 1 12 1Z" stroke="black" stroke-width="2"/>
<path d="M12 6C15.3137 6 18 8.68629 18 12C18 15.3137 15.3137 18 12 18C8.68629 18 6 15.3137 6 12C6 8.68629 8.68629 6 12 6Z" stroke="black" stroke-width="2"/>
</svg>
