<svg width="50" height="49" viewBox="0 0 50 49" fill="none" xmlns="http://www.w3.org/2000/svg">
<path d="M41.1369 24.5C41.1369 33.4544 33.8779 40.7135 24.9234 40.7135C15.969 40.7135 8.70996 33.4544 8.70996 24.5C8.70996 15.5455 15.969 8.28653 24.9234 8.28653C33.8779 8.28653 41.1369 15.5455 41.1369 24.5Z" stroke="black" stroke-width="3"/>
<path d="M24.9229 42.2134L24.9229 47.4233" stroke="black" stroke-width="3" stroke-linecap="round"/>
<path d="M42.6367 24.5L47.8466 24.5" stroke="black" stroke-width="3" stroke-linecap="round"/>
<path d="M24.9229 6.78653L24.9229 1.57669" stroke="black" stroke-width="3" stroke-linecap="round"/>
<path d="M7.20996 24.5L2.00012 24.5" stroke="black" stroke-width="3" stroke-linecap="round"/>
<path d="M12.3984 37.0253L10.5565 38.8673" stroke="black" stroke-width="3" stroke-linecap="round"/>
<path d="M37.4482 37.0253L39.2902 38.8673" stroke="black" stroke-width="3" stroke-linecap="round"/>
<path d="M37.4482 11.9747L39.2902 10.1327" stroke="black" stroke-width="3" stroke-linecap="round"/>
<path d="M12.3984 11.9747L10.5565 10.1327" stroke="black" stroke-width="3" stroke-linecap="round"/>
<path fill-rule="evenodd" clip-rule="evenodd" d="M17.1641 24.5246C22.6663 24.5246 27.1268 20.0642 27.1268 14.5619C27.1268 14.3236 27.1184 14.0872 27.102 13.853C27.052 13.142 27.6594 12.5124 28.3415 12.7194C33.4045 14.2557 37.0896 18.9598 37.0896 24.5246C37.0896 31.337 31.5671 36.8595 24.7547 36.8595C17.9424 36.8595 12.4199 31.337 12.4199 24.5246C12.4199 23.9676 13.0199 23.6417 13.5387 23.8444C14.6622 24.2836 15.885 24.5246 17.1641 24.5246Z" fill="black"/>
</svg>
