<svg width="37" height="36" viewBox="0 0 37 36" fill="none" xmlns="http://www.w3.org/2000/svg">
<path d="M23.3418 1.9985C30.0504 4.10343 34.9296 10.4116 34.9297 17.8745C34.9297 27.0662 27.5326 34.5005 18.4297 34.5005C9.51085 34.5005 2.23028 27.364 1.93945 18.4301C3.63192 19.0408 5.45458 19.3745 7.35254 19.3745C16.2201 19.3745 23.3916 12.1387 23.3916 3.23483C23.3916 2.81901 23.3726 2.40685 23.3418 1.9985Z" stroke="white" stroke-width="3"/>
<path d="M7.22709 15.2878C13.9995 15.2878 19.4896 9.75949 19.4896 2.93998C19.4896 2.13015 19.4122 1.33852 19.2644 0.572204C19.224 0.362826 19.0553 0.202303 18.8436 0.170284C18.1019 0.0581304 17.3427 0 16.5699 0C8.78909 0 2.37534 5.89398 1.49168 13.49C1.46727 13.6998 1.57591 13.9033 1.76538 13.9984C3.41005 14.8236 5.26474 15.2878 7.22709 15.2878Z" fill="white"/>
</svg>
