<svg width="39" height="35" viewBox="0 0 39 35" fill="none" xmlns="http://www.w3.org/2000/svg">
<path d="M8.76826 1.77051C9.48348 1.77051 10.1984 1.7715 10.556 4.16251C11.2713 5.87092 13.0608 9.9717 13.4184 10.3134C13.7755 10.6552 13.7757 11.3387 13.4184 11.6802C13.4181 12.022 13.0607 12.7055 12.7033 13.0471C11.9881 13.3888 11.6288 14.0723 11.2711 14.4139C10.9139 14.7557 10.5571 15.4381 10.9136 16.1206C12.3441 18.1706 14.1331 20.2214 15.9213 21.9297C18.0671 23.6381 20.5709 25.0053 23.0743 26.0303C23.7893 26.3717 24.5045 26.3714 24.8621 25.6886C25.5772 25.0054 27.0071 22.9551 27.7225 22.2714C28.4378 21.5881 29.1545 21.5881 29.8698 21.9297C30.5869 22.2722 35.2314 24.3211 35.9482 24.6634L37.3804 25.3469C37.7379 26.7134 37.738 28.081 37.0228 29.4474C35.5924 31.4972 33.4456 33.2043 30.9425 33.5461C28.7967 33.8878 27.0078 33.8877 25.2196 33.2044C23.4316 32.8627 22 32.1791 20.2119 31.4958C14.1326 28.7624 9.12653 24.3207 5.19274 18.8543C3.04698 16.121 1.9729 13.0466 1.61523 9.97165C1.61523 7.23833 2.68941 4.84565 4.83519 2.79565C5.19367 2.45372 6.26578 1.77051 6.9805 1.77051H8.76826Z" stroke="black" stroke-width="2"/>
</svg>
