<svg width="34" height="33" viewBox="0 0 34 33" fill="none" xmlns="http://www.w3.org/2000/svg">
<path d="M13.9282 1.95194C15.5213 -0.313193 18.8787 -0.313193 20.4718 1.95194L23.632 6.4451C24.1421 7.17043 24.8788 7.70568 25.7263 7.96671L30.9761 9.58375C33.6227 10.3989 34.6601 13.592 32.9982 15.8071L29.7015 20.2011C29.1693 20.9104 28.8879 21.7764 28.9015 22.6631L28.9859 28.1556C29.0284 30.9246 26.3123 32.898 23.692 32.0019L18.4944 30.2243C17.6553 29.9374 16.7447 29.9374 15.9056 30.2243L10.708 32.0019C8.08771 32.898 5.37156 30.9246 5.4141 28.1556L5.49849 22.6631C5.51211 21.7764 5.23072 20.9104 4.69853 20.2011L1.40182 15.8071C-0.260139 13.592 0.777339 10.3989 3.42391 9.58375L8.67371 7.96671C9.52118 7.70568 10.2579 7.17043 10.768 6.4451L13.9282 1.95194Z" fill="#BC13FE"/>
</svg>
