<svg width="44" height="42" viewBox="0 0 44 42" fill="none" xmlns="http://www.w3.org/2000/svg">
<path d="M18.7282 2.65189C20.3213 0.386754 23.6787 0.386758 25.2718 2.65189L30.1474 9.58402C30.6575 10.3093 31.3942 10.8446 32.2417 11.1056L40.3412 13.6004C42.9877 14.4156 44.0252 17.6086 42.3632 19.8238L37.277 26.6028C36.7448 27.3122 36.4635 28.1782 36.4771 29.0649L36.6073 37.5389C36.6498 40.3078 33.9337 42.2812 31.3134 41.3851L23.2944 38.6427C22.4553 38.3557 21.5447 38.3557 20.7056 38.6427L12.6866 41.3851C10.0663 42.2812 7.35019 40.3078 7.39274 37.5388L7.52293 29.0649C7.53655 28.1782 7.25515 27.3122 6.72297 26.6028L1.63675 19.8238C-0.025213 17.6086 1.01227 14.4156 3.65884 13.6004L11.7583 11.1056C12.6058 10.8446 13.3425 10.3093 13.8526 9.58402L18.7282 2.65189Z" fill="white" fill-opacity="0.5"/>
</svg>
