<svg width="38" height="33" viewBox="0 0 38 33" fill="none" xmlns="http://www.w3.org/2000/svg">
<path d="M35.3784 1C36.4878 1 37.3246 1.99882 36.877 3.85663L31.4469 30.1257C31.0674 31.9935 29.9678 32.4429 28.4497 31.574L15.4973 21.7555C15.4471 21.7185 15.4062 21.6698 15.378 21.6134C15.3497 21.5569 15.335 21.4944 15.335 21.4309C15.335 21.3675 15.3497 21.3049 15.378 21.2485C15.4062 21.192 15.4471 21.1433 15.4973 21.1063L30.4544 7.24264C31.1355 6.62337 30.3084 6.32372 29.4131 6.88307L10.6414 19.0387C10.5845 19.0768 10.5199 19.1011 10.4524 19.1098C10.385 19.1185 10.3165 19.1112 10.2522 19.0887L2.28224 16.5017C0.511146 15.9724 0.511146 14.7238 2.68123 13.8349L34.5707 1.20975C34.8236 1.08522 35.0982 1.0139 35.3784 1Z" stroke="black" stroke-width="2" stroke-linecap="round" stroke-linejoin="round"/>
</svg>
