<svg width="25" height="25" viewBox="0 0 25 25" fill="none" xmlns="http://www.w3.org/2000/svg">
<path d="M12.4168 8.69185C12.4168 8.36254 12.5476 8.04672 12.7805 7.81387C13.0133 7.58101 13.3291 7.4502 13.6584 7.4502C13.9878 7.4502 14.3036 7.58101 14.5364 7.81387C14.7693 8.04672 14.9001 8.36254 14.9001 8.69185V13.6584C14.9001 13.9878 14.7693 14.3036 14.5364 14.5364C14.3036 14.7693 13.9878 14.9001 13.6584 14.9001H8.69185C8.36254 14.9001 8.04672 14.7693 7.81387 14.5364C7.58101 14.3036 7.4502 13.9878 7.4502 13.6584C7.4502 13.3291 7.58101 13.0133 7.81387 12.7805C8.04672 12.5476 8.36254 12.4168 8.69185 12.4168H12.4168V8.69185Z" fill="black"/>
<path fill-rule="evenodd" clip-rule="evenodd" d="M24.833 12.4165C24.833 19.2741 19.2741 24.833 12.4165 24.833C5.55887 24.833 0 19.2741 0 12.4165C0 5.55887 5.55887 0 12.4165 0C19.2741 0 24.833 5.55887 24.833 12.4165ZM22.3497 12.4165C22.3497 15.051 21.3032 17.5775 19.4403 19.4403C17.5775 21.3032 15.051 22.3497 12.4165 22.3497C9.78205 22.3497 7.25551 21.3032 5.39267 19.4403C3.52983 17.5775 2.4833 15.051 2.4833 12.4165C2.4833 9.78205 3.52983 7.25551 5.39267 5.39267C7.25551 3.52983 9.78205 2.4833 12.4165 2.4833C15.051 2.4833 17.5775 3.52983 19.4403 5.39267C21.3032 7.25551 22.3497 9.78205 22.3497 12.4165Z" fill="black"/>
</svg>
