<svg width="26" height="31" viewBox="0 0 26 31" fill="none" xmlns="http://www.w3.org/2000/svg">
<path d="M10.2143 2.49972H15.7857C16.032 2.49972 16.2682 2.59755 16.4423 2.77169C16.6165 2.94583 16.7143 3.18202 16.7143 3.42829V5.28544H9.28571V3.42829C9.28571 3.18202 9.38355 2.94583 9.55769 2.77169C9.73183 2.59755 9.96801 2.49972 10.2143 2.49972ZM18.5714 5.28544V3.42829C18.5714 2.68948 18.2779 1.98092 17.7555 1.45849C17.2331 0.936072 16.5245 0.642578 15.7857 0.642578L10.2143 0.642578C9.47547 0.642578 8.76691 0.936072 8.24449 1.45849C7.72206 1.98092 7.42857 2.68948 7.42857 3.42829V5.28544H0.928571C0.682299 5.28544 0.446113 5.38327 0.271972 5.55741C0.0978313 5.73155 0 5.96773 0 6.21401C0 6.46028 0.0978313 6.69646 0.271972 6.87061C0.446113 7.04475 0.682299 7.14258 0.928571 7.14258H1.92771L3.51186 26.9397C3.58656 27.8705 4.00911 28.739 4.69537 29.3723C5.38162 30.0055 6.28122 30.3571 7.215 30.3569H18.785C19.7188 30.3571 20.6184 30.0055 21.3046 29.3723C21.9909 28.739 22.4134 27.8705 22.4881 26.9397L24.0723 7.14258H25.0714C25.3177 7.14258 25.5539 7.04475 25.728 6.87061C25.9022 6.69646 26 6.46028 26 6.21401C26 5.96773 25.9022 5.73155 25.728 5.55741C25.5539 5.38327 25.3177 5.28544 25.0714 5.28544H18.5714ZM22.2077 7.14258L20.6366 26.7911C20.5992 27.2565 20.3879 27.6908 20.0448 28.0074C19.7017 28.324 19.2519 28.4998 18.785 28.4997H7.215C6.74811 28.4998 6.29831 28.324 5.95518 28.0074C5.61206 27.6908 5.40078 27.2565 5.36343 26.7911L3.79229 7.14258H22.2077ZM8.30329 8.99972C8.54905 8.98552 8.79039 9.06948 8.97427 9.23316C9.15814 9.39683 9.2695 9.62683 9.28386 9.87258L10.2124 25.6583C10.2222 25.9012 10.1363 26.1382 9.97326 26.3185C9.81021 26.4987 9.58296 26.6079 9.34033 26.6225C9.0977 26.637 8.85902 26.5559 8.67554 26.3965C8.49206 26.237 8.37841 26.012 8.359 25.7697L7.42857 9.98401C7.42103 9.86202 7.43765 9.73974 7.47747 9.62418C7.51729 9.50863 7.57954 9.40207 7.66063 9.31063C7.74172 9.21918 7.84007 9.14465 7.95003 9.09129C8.06 9.03794 8.17941 9.00682 8.30143 8.99972H8.30329ZM17.6967 8.99972C17.8187 9.00682 17.9381 9.03794 18.0481 9.09129C18.1581 9.14465 18.2564 9.21918 18.3375 9.31063C18.4186 9.40207 18.4809 9.50863 18.5207 9.62418C18.5605 9.73974 18.5771 9.86202 18.5696 9.98401L17.641 25.7697C17.636 25.8931 17.6065 26.0143 17.5542 26.1261C17.5018 26.238 17.4277 26.3383 17.3361 26.4211C17.2445 26.504 17.1373 26.5677 17.0208 26.6086C16.9042 26.6495 16.7807 26.6668 16.6574 26.6593C16.5342 26.6519 16.4136 26.62 16.3028 26.5654C16.1921 26.5109 16.0933 26.4347 16.0123 26.3415C15.9313 26.2483 15.8697 26.1399 15.8311 26.0225C15.7925 25.9052 15.7777 25.7814 15.7876 25.6583L16.7161 9.87258C16.7305 9.62683 16.8419 9.39683 17.0257 9.23316C17.2096 9.06948 17.451 8.98552 17.6967 8.99972ZM13 8.99972C13.2463 8.99972 13.4825 9.09755 13.6566 9.27169C13.8307 9.44583 13.9286 9.68202 13.9286 9.92829V25.714C13.9286 25.9603 13.8307 26.1965 13.6566 26.3706C13.4825 26.5447 13.2463 26.6426 13 26.6426C12.7537 26.6426 12.5175 26.5447 12.3434 26.3706C12.1693 26.1965 12.0714 25.9603 12.0714 25.714V9.92829C12.0714 9.68202 12.1693 9.44583 12.3434 9.27169C12.5175 9.09755 12.7537 8.99972 13 8.99972Z" fill="white"/>
</svg>
