<svg width="304" height="304" viewBox="0 0 304 304" fill="none" xmlns="http://www.w3.org/2000/svg">
<path d="M214.249 120.277C214.249 152.83 186.16 179.717 150.88 179.717C115.599 179.717 87.5107 152.83 87.5107 120.277C87.5107 87.7231 115.599 60.8359 150.88 60.8359C186.16 60.8359 214.249 87.7231 214.249 120.277Z" stroke="black" stroke-width="10"/>
<path d="M264.83 294.265C264.83 282.274 262.388 270.399 257.643 259.321C252.898 248.242 245.944 238.176 237.177 229.696C228.41 221.217 218.002 214.491 206.547 209.902C195.093 205.313 182.815 202.951 170.417 202.951" stroke="black" stroke-width="10"/>
<path d="M39.292 294.265C39.292 282.274 41.8066 270.399 46.6921 259.321C51.5777 248.242 58.7386 238.176 67.766 229.696C76.7933 221.217 87.5104 214.491 99.3052 209.902C111.1 205.313 123.742 202.951 136.508 202.951H170.421" stroke="black" stroke-width="10"/>
<rect x="5" y="5" width="294" height="294" rx="15" stroke="black" stroke-width="10"/>
</svg>
