<svg width="32" height="32" viewBox="0 0 32 32" fill="none" xmlns="http://www.w3.org/2000/svg">
<path fill-rule="evenodd" clip-rule="evenodd" d="M16.0077 0L16.4647 0.00683594C18.7474 0.0741107 20.9914 0.629532 23.0448 1.63672C25.2349 2.71109 27.1509 4.27162 28.6454 6.19922C30.1398 8.12686 31.1736 10.3706 31.6678 12.7588C32.1621 15.1471 32.1037 17.6172 31.4969 19.9795C30.8901 22.3416 29.7509 24.5339 28.1668 26.3887C26.5827 28.2434 24.5949 29.7121 22.3563 30.6816C20.1177 31.651 17.6868 32.0956 15.2498 31.9824C12.9429 31.8752 10.6881 31.2701 8.63949 30.2109L1.23129 31.9727C0.893586 32.053 0.538281 31.9524 0.292812 31.707C0.0473456 31.4615 -0.0531803 31.1063 0.0271869 30.7686L1.78891 23.3613C0.575153 21.012 -0.0400324 18.3969 0.00374945 15.749C0.0497432 12.9703 0.818505 10.2512 2.23422 7.85938C3.64998 5.46758 5.66461 3.48539 8.07895 2.10742C10.4934 0.729477 13.2255 0.00298519 16.0057 0H16.0077ZM16.0067 2C13.5737 2.00279 11.1829 2.63797 9.07016 3.84375C6.9572 5.04967 5.19485 6.78494 3.9559 8.87793C2.71695 10.971 2.04398 13.3506 2.00375 15.7822C1.96354 18.2138 2.55737 20.6142 3.72641 22.7471C3.84542 22.9642 3.87934 23.2181 3.82211 23.459L2.3475 29.6514L8.54379 28.1787L8.63461 28.1611C8.84774 28.1308 9.06649 28.1701 9.25668 28.2744L9.60922 28.4619C11.3881 29.3723 13.3432 29.8924 15.3426 29.9854C17.4752 30.0844 19.6024 29.694 21.5614 28.8457C23.5204 27.9973 25.2602 26.7128 26.6463 25.0898C28.0325 23.4669 29.0285 21.5483 29.5594 19.4814C30.0903 17.4146 30.1423 15.2537 29.7098 13.1641C29.2774 11.0745 28.372 9.11154 27.0643 7.4248C25.7566 5.73807 24.0805 4.3718 22.1639 3.43164C20.2476 2.49166 18.1414 2.0021 16.0067 2Z" fill="black"/>
<path d="M10.5166 8C10.8682 8 11.2197 8.00051 11.3955 9.22363C11.7472 10.0976 12.6269 12.1953 12.8027 12.3701C12.9783 12.545 12.9784 12.8946 12.8027 13.0693C12.8026 13.2442 12.6269 13.5938 12.4512 13.7686C12.0995 13.9433 11.9229 14.293 11.7471 14.4678C11.5715 14.6426 11.396 14.9917 11.5713 15.3408C12.2746 16.3895 13.1541 17.4386 14.0332 18.3125C15.0881 19.1864 16.3191 19.8858 17.5498 20.4102C17.9013 20.5848 18.2529 20.5846 18.4287 20.2354C18.7803 19.8858 19.4833 18.8371 19.835 18.4873C20.1866 18.1377 20.539 18.1377 20.8906 18.3125C21.2431 18.4877 23.5265 19.5358 23.8789 19.7109L24.583 20.0605C24.7588 20.7596 24.7588 21.4592 24.4072 22.1582C23.704 23.2068 22.6486 24.08 21.418 24.2549C20.363 24.4297 19.4836 24.4296 18.6045 24.0801C17.7254 23.9053 17.0216 23.5556 16.1426 23.2061C13.1538 21.8078 10.6927 19.5356 8.75879 16.7393C7.70388 15.341 7.17584 13.7683 7 12.1953C7 10.7971 7.52809 9.5731 8.58301 8.52441C8.75924 8.3495 9.28632 8 9.6377 8H10.5166Z" fill="black"/>
</svg>
