<svg width="568" height="176" viewBox="0 0 568 176" fill="none" xmlns="http://www.w3.org/2000/svg">
<path d="M18.3937 44.4253C52.3461 22.6301 107.447 -3.92827 68.1714 37.6414C53.0919 53.6016 35.5439 79.7212 20.1955 103.027M3 129.008C8.16948 121.373 14.0035 112.429 20.1955 103.027M20.1955 103.027C29.5281 95.2536 41.6285 85.3155 54.5041 74.9493M136.076 15.8462C128.058 17.1031 88.5681 47.5243 54.5041 74.9493M145.571 3C136.076 15.1726 117.287 40.4993 118.093 44.4253M54.5041 74.9493C54.5041 109.378 58.9064 157.558 93.2041 122.224M157.368 44.4253L145.571 61.0243M136.076 73.8705C109.605 106.78 81.9825 149.215 140.104 101.439M165.856 69.9733L146.578 106.635M136.076 125.399L146.578 106.635M146.578 106.635C168.106 70.6835 212.216 48.3254 174.663 108.223M167.583 119.049C170.21 115.175 172.564 111.571 174.663 108.223M174.663 108.223C210.599 61.0243 248.723 53.3743 201.248 110.388C191.392 122.224 202.974 138.967 246.709 89.1704M312.274 67.4366C311.208 71.8365 308.908 79.7526 305.957 86.778M300.333 97.1704C302.349 94.5578 304.261 90.815 305.957 86.778M305.957 86.778C304.13 77.2035 291.119 63.2747 274.725 97.1704C253.433 141.194 287.529 134.266 324.791 96.0157M368.526 21.2481C360.918 40.331 345.254 78.4124 332.085 105.686M320.618 127.049C324.08 121.176 327.823 114.514 332.085 105.686M332.085 105.686C351.55 87.9327 386.365 52.4253 367.087 97.1704C357.065 118.148 348.672 147.516 395.285 97.1704M428.374 43.0433L418.447 62.962M413.556 72.7771C399.169 105.686 372.986 152.164 425.353 102.655M456.716 67.4366C468.896 52.8583 492.593 19.7976 479.878 8.83492C461.463 -7.04238 414.419 133.951 437.15 127.337C451.537 123.151 459.449 110.45 469.664 97.1704M497.142 71.3337C507.501 59.8347 527.798 28.6223 516.852 19.8047C497.142 3.92739 462.218 130.645 481.605 124.162C497.142 118.966 505.918 102.655 509.515 97.7478" stroke="#BC13FE" stroke-width="6" stroke-linecap="round"/>
<path d="M338.423 143.135H341.713V152.55C343.44 150.333 345.773 149.225 348.713 149.225C350.136 149.225 351.455 149.482 352.668 149.995C353.881 150.508 354.931 151.22 355.818 152.13C356.728 153.04 357.428 154.113 357.918 155.35C358.431 156.563 358.688 157.893 358.688 159.34C358.688 160.787 358.431 162.128 357.918 163.365C357.428 164.602 356.74 165.675 355.853 166.585C354.99 167.472 353.951 168.172 352.738 168.685C351.548 169.198 350.241 169.455 348.818 169.455C345.761 169.455 343.346 168.3 341.573 165.99V169H338.423V143.135ZM348.468 166.445C349.471 166.445 350.393 166.27 351.233 165.92C352.073 165.547 352.796 165.045 353.403 164.415C354.033 163.785 354.523 163.038 354.873 162.175C355.223 161.312 355.398 160.367 355.398 159.34C355.398 158.313 355.223 157.368 354.873 156.505C354.523 155.618 354.033 154.86 353.403 154.23C352.796 153.6 352.061 153.11 351.198 152.76C350.335 152.41 349.39 152.235 348.363 152.235C347.383 152.235 346.473 152.422 345.633 152.795C344.793 153.145 344.07 153.647 343.463 154.3C342.856 154.93 342.378 155.677 342.028 156.54C341.678 157.403 341.503 158.348 341.503 159.375C341.503 160.378 341.678 161.312 342.028 162.175C342.401 163.038 342.891 163.785 343.498 164.415C344.128 165.045 344.863 165.547 345.703 165.92C346.566 166.27 347.488 166.445 348.468 166.445Z" fill="#BC13FE"/>
<path d="M380.834 162.875C380.508 163.855 380.029 164.753 379.399 165.57C378.793 166.363 378.081 167.052 377.264 167.635C376.448 168.218 375.549 168.673 374.569 169C373.613 169.303 372.609 169.455 371.559 169.455C370.136 169.455 368.794 169.198 367.534 168.685C366.298 168.148 365.213 167.425 364.279 166.515C363.346 165.605 362.611 164.543 362.074 163.33C361.561 162.093 361.304 160.763 361.304 159.34C361.304 157.94 361.561 156.633 362.074 155.42C362.611 154.207 363.323 153.145 364.209 152.235C365.119 151.325 366.181 150.613 367.394 150.1C368.608 149.587 369.914 149.33 371.314 149.33C372.714 149.33 374.021 149.598 375.234 150.135C376.471 150.648 377.544 151.36 378.454 152.27C379.364 153.157 380.076 154.207 380.589 155.42C381.126 156.633 381.394 157.94 381.394 159.34C381.394 159.807 381.348 160.238 381.254 160.635H364.734C364.804 161.475 365.026 162.245 365.399 162.945C365.796 163.645 366.286 164.263 366.869 164.8C367.476 165.313 368.176 165.722 368.969 166.025C369.763 166.305 370.603 166.445 371.489 166.445C372.773 166.445 373.928 166.13 374.954 165.5C376.004 164.87 376.809 163.995 377.369 162.875H380.834ZM378.069 157.73C377.673 156.027 376.879 154.708 375.689 153.775C374.523 152.818 373.076 152.34 371.349 152.34C369.669 152.34 368.234 152.83 367.044 153.81C365.854 154.767 365.084 156.073 364.734 157.73H378.069Z" fill="#BC13FE"/>
<path d="M383.863 159.445C383.863 157.998 384.108 156.657 384.598 155.42C385.111 154.183 385.811 153.122 386.698 152.235C387.608 151.325 388.67 150.613 389.883 150.1C391.12 149.587 392.45 149.33 393.873 149.33C395.483 149.33 396.848 149.61 397.968 150.17C399.111 150.73 400.138 151.64 401.048 152.9V149.785H404.198V169H401.048V165.92C400.045 167.18 398.995 168.09 397.898 168.65C396.825 169.187 395.518 169.455 393.978 169.455C392.531 169.455 391.19 169.21 389.953 168.72C388.716 168.207 387.643 167.507 386.733 166.62C385.846 165.733 385.146 164.683 384.633 163.47C384.12 162.233 383.863 160.892 383.863 159.445ZM387.188 159.41C387.188 160.413 387.363 161.347 387.713 162.21C388.086 163.05 388.588 163.785 389.218 164.415C389.848 165.045 390.583 165.547 391.423 165.92C392.286 166.27 393.208 166.445 394.188 166.445C395.168 166.445 396.066 166.27 396.883 165.92C397.723 165.547 398.446 165.045 399.053 164.415C399.66 163.785 400.126 163.038 400.453 162.175C400.803 161.312 400.978 160.378 400.978 159.375C400.978 158.348 400.803 157.415 400.453 156.575C400.103 155.712 399.613 154.965 398.983 154.335C398.376 153.705 397.641 153.215 396.778 152.865C395.938 152.515 395.016 152.34 394.013 152.34C393.056 152.34 392.158 152.527 391.318 152.9C390.501 153.25 389.778 153.752 389.148 154.405C388.541 155.035 388.063 155.782 387.713 156.645C387.363 157.508 387.188 158.43 387.188 159.41Z" fill="#BC13FE"/>
<path d="M422.214 166.41C421.467 167.483 420.627 168.265 419.694 168.755C418.784 169.222 417.629 169.455 416.229 169.455C413.615 169.455 411.644 168.673 410.314 167.11C409.007 165.547 408.354 163.213 408.354 160.11V149.785H411.644V159.83C411.644 162.093 412.052 163.762 412.869 164.835C413.685 165.908 414.957 166.445 416.684 166.445C420.277 166.445 422.074 164.088 422.074 159.375V149.785H425.364V169H422.214V166.41Z" fill="#BC13FE"/>
<path d="M431.435 152.76H427.9V149.785H431.435V143.135H434.69V149.785H438.505V152.76H434.69V169H431.435V152.76Z" fill="#BC13FE"/>
<path d="M446.49 167.985L439.175 149.785H442.85L448.31 164.135L454.19 149.785H457.83L446.7 175.65H443.2L446.49 167.985Z" fill="#BC13FE"/>
<path d="M471.662 163.19C471.919 165.36 473.015 166.445 474.952 166.445C475.769 166.445 476.445 166.177 476.982 165.64C477.519 165.103 477.787 164.427 477.787 163.61C477.787 163.167 477.705 162.793 477.542 162.49C477.402 162.163 477.18 161.883 476.877 161.65C476.574 161.393 476.2 161.16 475.757 160.95C475.314 160.74 474.8 160.53 474.217 160.32C473.284 159.97 472.49 159.62 471.837 159.27C471.184 158.897 470.647 158.5 470.227 158.08C469.83 157.637 469.539 157.158 469.352 156.645C469.189 156.132 469.107 155.548 469.107 154.895C469.107 154.078 469.247 153.332 469.527 152.655C469.83 151.978 470.227 151.395 470.717 150.905C471.23 150.415 471.837 150.03 472.537 149.75C473.26 149.47 474.042 149.33 474.882 149.33C475.699 149.33 476.445 149.47 477.122 149.75C477.822 150.007 478.417 150.368 478.907 150.835C479.42 151.302 479.817 151.873 480.097 152.55C480.4 153.203 480.564 153.927 480.587 154.72H477.332C477.145 153.133 476.317 152.34 474.847 152.34C474.124 152.34 473.529 152.55 473.062 152.97C472.619 153.367 472.397 153.892 472.397 154.545C472.397 155.338 472.77 155.992 473.517 156.505C474.264 156.995 475.197 157.438 476.317 157.835C479.49 158.908 481.077 160.728 481.077 163.295C481.077 164.182 480.925 165.01 480.622 165.78C480.319 166.527 479.887 167.18 479.327 167.74C478.79 168.277 478.137 168.697 477.367 169C476.62 169.303 475.792 169.455 474.882 169.455C472.945 169.455 471.394 168.895 470.227 167.775C469.084 166.655 468.477 165.127 468.407 163.19H471.662Z" fill="#BC13FE"/>
<path d="M485.952 152.76H482.417V149.785H485.952V143.135H489.207V149.785H493.022V152.76H489.207V169H485.952V152.76Z" fill="#BC13FE"/>
<path d="M509.372 166.41C508.625 167.483 507.785 168.265 506.852 168.755C505.942 169.222 504.787 169.455 503.387 169.455C500.774 169.455 498.802 168.673 497.472 167.11C496.165 165.547 495.512 163.213 495.512 160.11V149.785H498.802V159.83C498.802 162.093 499.21 163.762 500.027 164.835C500.844 165.908 502.115 166.445 503.842 166.445C507.435 166.445 509.232 164.088 509.232 159.375V149.785H512.522V169H509.372V166.41Z" fill="#BC13FE"/>
<path d="M515.933 159.41C515.933 157.963 516.19 156.622 516.703 155.385C517.217 154.148 517.917 153.075 518.803 152.165C519.713 151.255 520.775 150.543 521.988 150.03C523.225 149.493 524.555 149.225 525.978 149.225C527.378 149.225 528.685 149.493 529.898 150.03C531.112 150.567 532.15 151.348 533.013 152.375V143.135H536.268V169H533.118V165.85C532.138 167.133 531.112 168.055 530.038 168.615C528.965 169.175 527.67 169.455 526.153 169.455C524.707 169.455 523.353 169.198 522.093 168.685C520.857 168.172 519.783 167.472 518.873 166.585C517.963 165.675 517.24 164.613 516.703 163.4C516.19 162.163 515.933 160.833 515.933 159.41ZM519.258 159.305C519.258 160.308 519.433 161.253 519.783 162.14C520.157 163.003 520.658 163.762 521.288 164.415C521.942 165.045 522.7 165.547 523.563 165.92C524.427 166.27 525.348 166.445 526.328 166.445C527.285 166.445 528.172 166.258 528.988 165.885C529.828 165.512 530.552 165.01 531.158 164.38C531.788 163.727 532.278 162.968 532.628 162.105C533.002 161.242 533.188 160.32 533.188 159.34C533.188 158.337 533.002 157.403 532.628 156.54C532.278 155.677 531.777 154.93 531.123 154.3C530.493 153.647 529.735 153.145 528.848 152.795C527.985 152.422 527.052 152.235 526.048 152.235C525.115 152.235 524.228 152.422 523.388 152.795C522.572 153.168 521.848 153.67 521.218 154.3C520.612 154.93 520.133 155.677 519.783 156.54C519.433 157.403 519.258 158.325 519.258 159.305Z" fill="#BC13FE"/>
<path d="M540.459 149.785H543.749V169H540.459V149.785ZM540.459 143.135H543.749V147.545H540.459V143.135Z" fill="#BC13FE"/>
<path d="M547.139 159.41C547.139 157.963 547.396 156.633 547.909 155.42C548.446 154.183 549.169 153.122 550.079 152.235C550.989 151.325 552.063 150.613 553.299 150.1C554.559 149.587 555.924 149.33 557.394 149.33C558.794 149.33 560.101 149.587 561.314 150.1C562.528 150.613 563.578 151.325 564.464 152.235C565.374 153.145 566.074 154.218 566.564 155.455C567.078 156.668 567.334 157.998 567.334 159.445C567.334 160.868 567.078 162.187 566.564 163.4C566.074 164.613 565.374 165.675 564.464 166.585C563.578 167.472 562.528 168.172 561.314 168.685C560.101 169.198 558.794 169.455 557.394 169.455C555.948 169.455 554.594 169.198 553.334 168.685C552.098 168.172 551.013 167.472 550.079 166.585C549.169 165.675 548.446 164.613 547.909 163.4C547.396 162.163 547.139 160.833 547.139 159.41ZM557.359 166.445C558.316 166.445 559.203 166.27 560.019 165.92C560.836 165.57 561.536 165.08 562.119 164.45C562.726 163.82 563.193 163.085 563.519 162.245C563.869 161.382 564.044 160.448 564.044 159.445C564.044 158.418 563.869 157.473 563.519 156.61C563.193 155.747 562.714 155 562.084 154.37C561.478 153.74 560.754 153.25 559.914 152.9C559.074 152.527 558.164 152.34 557.184 152.34C556.228 152.34 555.341 152.527 554.524 152.9C553.708 153.25 552.996 153.74 552.389 154.37C551.783 155 551.304 155.747 550.954 156.61C550.628 157.473 550.464 158.407 550.464 159.41C550.464 160.413 550.639 161.347 550.989 162.21C551.339 163.073 551.818 163.82 552.424 164.45C553.054 165.08 553.789 165.57 554.629 165.92C555.469 166.27 556.379 166.445 557.359 166.445Z" fill="#BC13FE"/>
</svg>
